<?xml version="1.0" encoding="UTF-8" standalone="no"?>
<!-- Generator: Adobe Illustrator 18.0.0, SVG Export Plug-In . SVG Version: 6.00 Build 0)  -->

<svg
   xmlns:dc="http://purl.org/dc/elements/1.1/"
   xmlns:cc="http://creativecommons.org/ns#"
   xmlns:rdf="http://www.w3.org/1999/02/22-rdf-syntax-ns#"
   xmlns:svg="http://www.w3.org/2000/svg"
   xmlns="http://www.w3.org/2000/svg"
   xmlns:sodipodi="http://sodipodi.sourceforge.net/DTD/sodipodi-0.dtd"
   xmlns:inkscape="http://www.inkscape.org/namespaces/inkscape"
   version="1.1"
   id="Capa_1"
   x="0px"
   y="0px"
   viewBox="0 0 323.361 323.361"
   style="enable-background:new 0 0 323.361 323.361;"
   xml:space="preserve"
   sodipodi:docname="icon_orange.svg"
   inkscape:version="0.92.4 (5da689c313, 2019-01-14)"><metadata
   id="metadata3793"><rdf:RDF><cc:Work
       rdf:about=""><dc:format>image/svg+xml</dc:format><dc:type
         rdf:resource="http://purl.org/dc/dcmitype/StillImage" /><dc:title></dc:title></cc:Work></rdf:RDF></metadata><defs
   id="defs3791">
	
</defs><sodipodi:namedview
   pagecolor="#ffffff"
   bordercolor="#666666"
   borderopacity="1"
   objecttolerance="10"
   gridtolerance="10"
   guidetolerance="10"
   inkscape:pageopacity="0"
   inkscape:pageshadow="2"
   inkscape:window-width="1600"
   inkscape:window-height="838"
   id="namedview3789"
   showgrid="false"
   inkscape:zoom="2.0750802"
   inkscape:cx="83.370271"
   inkscape:cy="161.6805"
   inkscape:window-x="-8"
   inkscape:window-y="-8"
   inkscape:window-maximized="1"
   inkscape:current-layer="Capa_1" />
<path
   inkscape:connector-curvature="0"
   id="path3754"
   d="m 261.724,134.361 c -2.524,0 -5.007,0.17 -7.452,0.467 L 238.907,82.23 c 1.501,-1.749 2.413,-4.018 2.413,-6.503 0,-5.522 -4.478,-10 -10,-10 h -41.249 c -5.522,0 -10,4.478 -10,10 0,5.522 4.478,10 10,10 h 26.125 l -10.622,16.907 c -0.469,-0.06 -0.95,-0.094 -1.432,-0.081 l -89.302,1.295 c 2.213,-1.834 3.623,-4.604 3.623,-7.702 0,-5.522 -4.477,-10 -10,-10 h -24.09 c -5.523,0 -10,4.478 -10,10 0,5.522 4.477,10 10,10 h 1.799 c 0.24,0.895 0.603,1.772 1.109,2.604 l 4.016,6.609 -11.084,21.868 C 74.348,135.369 68.108,134.36 61.636,134.36 27.65,134.361 0,162.01 0,195.997 c 0,33.987 27.65,61.637 61.636,61.637 29.35,0 53.957,-20.627 60.13,-48.141 l 32.978,1.908 c 0.194,0.011 0.387,0.017 0.579,0.017 3.425,0 6.63,-1.758 8.466,-4.681 l 61.88,-98.495 9.403,32.186 c -20.679,9.958 -34.985,31.124 -34.985,55.569 0,33.986 27.65,61.637 61.637,61.637 33.987,0 61.637,-27.65 61.637,-61.637 0,-33.987 -27.651,-61.636 -61.637,-61.636 z m -158.203,1.118 33.329,54.853 -13.92,-0.805 c -1.856,-17.71 -11.246,-33.204 -24.894,-43.228 z M 20,195.997 c 0,-22.958 18.678,-41.636 41.636,-41.636 3.215,0 6.342,0.378 9.349,1.072 l -18.269,36.044 c -1.525,3.008 -1.431,6.582 0.251,9.506 1.682,2.924 4.724,4.803 8.091,4.998 l 40.353,2.335 C 96.147,225.28 80.307,237.634 61.636,237.634 38.678,237.634 20,218.956 20,195.997 Z m 57.46,-9.102 11.354,-22.401 c 7.006,6.053 11.977,14.393 13.742,23.853 z m 77.986,-4.473 -35.633,-58.644 73.142,-1.061 z m 106.278,55.212 c -22.959,0 -41.637,-18.678 -41.637,-41.637 0,-15.333 8.337,-28.747 20.71,-35.972 l 11.328,38.776 c 1.55,5.302 7.106,8.345 12.402,6.795 5.302,-1.549 8.344,-7.102 6.795,-12.402 l -11.331,-38.788 c 0.575,-0.024 1.152,-0.044 1.733,-0.044 22.959,0 41.637,18.678 41.637,41.636 0,22.958 -18.678,41.636 -41.637,41.636 z"
   style="opacity:1;fill:#ff7f2a" />
<g
   id="g3758">
</g>
<g
   id="g3760">
</g>
<g
   id="g3762">
</g>
<g
   id="g3764">
</g>
<g
   id="g3766">
</g>
<g
   id="g3768">
</g>
<g
   id="g3770">
</g>
<g
   id="g3772">
</g>
<g
   id="g3774">
</g>
<g
   id="g3776">
</g>
<g
   id="g3778">
</g>
<g
   id="g3780">
</g>
<g
   id="g3782">
</g>
<g
   id="g3784">
</g>
<g
   id="g3786">
</g>
</svg>